<?xml version="1.0" standalone="no"?>
<!DOCTYPE svg PUBLIC "-//W3C//DTD SVG 20010904//EN"
 "http://www.w3.org/TR/2001/REC-SVG-20010904/DTD/svg10.dtd">
<svg version="1.0" xmlns="http://www.w3.org/2000/svg"
 width="512.000000pt" height="512.000000pt" viewBox="0 0 512.000000 512.000000"
 preserveAspectRatio="xMidYMid meet">
<metadata>
Created by potrace 1.11, written by Peter Selinger 2001-2013
</metadata>
<g transform="translate(0.000000,512.000000) scale(0.100000,-0.100000)"
fill="#000000" stroke="none">
<path d="M0 2560 l0 -2560 2560 0 2560 0 0 2560 0 2560 -2560 0 -2560 0 0
-2560z m3640 1456 c52 -8 131 -26 175 -40 300 -95 468 -348 492 -743 l6 -103
-276 0 -276 0 -6 58 c-16 143 -59 254 -126 327 -64 69 -109 89 -199 90 -209 0
-313 -149 -368 -530 -24 -170 -23 -817 1 -1015 33 -261 85 -408 175 -493 121
-112 293 -97 420 36 104 111 132 207 132 465 l0 172 -190 0 -190 0 0 210 0
210 465 0 465 0 0 -770 0 -770 -210 0 -210 0 0 130 c0 72 -3 130 -7 130 -5 0
-23 -23 -42 -51 -70 -103 -198 -188 -341 -226 -94 -25 -355 -25 -465 0 -360
83 -534 366 -585 952 -29 338 -22 820 16 1085 76 526 302 806 708 874 109 19
319 19 436 2z m-1440 -1083 c0 -627 -4 -1091 -10 -1154 -38 -397 -207 -598
-570 -676 -119 -25 -443 -25 -545 0 -108 27 -227 90 -293 156 -137 137 -188
290 -199 599 l-6 172 267 0 266 0 0 -102 c1 -186 28 -313 82 -374 73 -83 257
-85 337 -5 43 43 68 114 81 233 6 48 10 536 10 1141 l0 1057 290 0 290 0 0
-1047z"/>
</g>
</svg>
